<svg viewBox="0 0 495 585" xmlns="http://www.w3.org/2000/svg" xmlns:xlink="http://www.w3.org/1999/xlink">
  <title>
    durf
  </title>
  <defs>
    <linearGradient x1="32.21%" y1="13.454%" x2="50%" y2="66.729%" id="a">
      <stop stop-color="#B3D4F1" offset="0%"/>
      <stop stop-color="#7BA9DF" offset="100%"/>
    </linearGradient>
    <circle id="b" cx="247.5" cy="337.5" r="200.5"/>
    <filter x="-.7%" y="-.7%" width="101.5%" height="101.5%" filterUnits="objectBoundingBox" id="c">
      <feMorphology radius="1" in="SourceAlpha" result="shadowSpreadInner1"/>
      <feGaussianBlur stdDeviation="1.5" in="shadowSpreadInner1" result="shadowBlurInner1"/>
      <feOffset dx="1" dy="2" in="shadowBlurInner1" result="shadowOffsetInner1"/>
      <feComposite in="shadowOffsetInner1" in2="SourceAlpha" operator="arithmetic" k2="-1" k3="1" result="shadowInnerInner1"/>
      <feColorMatrix values="0 0 0 0 0 0 0 0 0 0 0 0 0 0 0 0 0 0 0.5 0" in="shadowInnerInner1"/>
    </filter>
    <linearGradient x1="50%" y1="0%" x2="50%" y2="100%" id="d">
      <stop stop-color="#D7401B" offset="0%"/>
      <stop stop-color="#F08635" offset="100%"/>
    </linearGradient>
    <linearGradient x1="68.457%" y1="72.531%" x2="46.152%" y2="34.89%" id="e">
      <stop stop-color="#D7401B" offset="0%"/>
      <stop stop-color="#E56729" offset="66.941%"/>
      <stop stop-color="#F08635" offset="100%"/>
    </linearGradient>
  </defs>
  <g fill="none" fill-rule="evenodd">
    <circle fill="#F1C06D" cx="247.5" cy="337.5" r="247.5"/>
    <use fill="url(#a)" xlink:href="#b"/>
    <use fill="#000" filter="url(#c)" xlink:href="#b"/>
    <path d="M94.23 370.01C104.985 258.374 196.56 135.04 368.957 0c-43.278 72.17-62.543 134.156-57.798 185.962 7.116 77.71 90.923 145.57 90.923 230.087 0 84.513-59.272 143.41-167.998 143.41S85.195 463.795 94.23 370.01z" fill="url(#d)"/>
    <path d="M387.87 394.39C377.987 297.123 293.844 189.66 135.44 72c39.765 62.88 57.467 116.89 53.106 162.03C182.006 301.738 105 360.866 105 434.505c0 73.64 54.462 124.954 154.363 124.954 99.902 0 136.81-83.35 128.507-165.07z" fill="url(#e)"/>
    <path d="M170.562 513.368l-119.23 19.666L39 535.07l4.07 24.665L55.4 557.7l191.966-31.663L439.333 557.7l12.334 2.035 4.068-24.666-12.333-2.038-119.23-19.666 119.23-19.667 12.333-2.034L451.667 467l-12.334 2.034L247.368 500.7 55.402 469.033 43.07 467 39 491.667l12.333 2.034 119.23 19.67z" stroke="#3F0F06" stroke-width="10" fill="#3F0F06" stroke-linecap="square"/>
  </g>
</svg>
